# xmcd
#
# Track frame offsets: 
#        150
#        19635
#        38447
#        49840
#        63632
#        83907
#        96452
#        123767
#        149197
#        165397
#        205137
#
# Disc length: 3321 seconds
#
# Revision: 3
# Processed by: cddbd v1.5.2PL0 Copyright (c) Steve Scherf et al.
# Submitted via: ExactAudioCopyFreeDBPlugin 1.0
#
DISCID=940cf70b
DTITLE=AZUMI - 泥とバター
DYEAR=1993
DGENRE=Blues
TTITLE0=君は嘘つき
TTITLE1=AZUMI NO BLUES
TTITLE2=黄昏ビヤホール
TTITLE3=君は嘘つき
TTITLE4=逢わずに笑って
TTITLE5=ジョセフ・スペンスに捧ぐ
TTITLE6=失くした光 (It's not spot light)
TTITLE7=もしも オイラが
TTITLE8=おーい 雲よ
TTITLE9=Same old songs
TTITLE10=ハイ ハイ ハイ ～ ブルーズ シューズ (live version)
EXTD=YEAR: 1993 ID3G:   0
EXTT0=
EXTT1=
EXTT2=
EXTT3=
EXTT4=
EXTT5=
EXTT6=
EXTT7=
EXTT8=
EXTT9=
EXTT10=
PLAYORDER=
